<svg id="_x33_0" enable-background="new 0 0 64 64" height="512" viewBox="0 0 64 64" width="512" xmlns="http://www.w3.org/2000/svg"><g><g><g><path d="m26 44h12v4h-12z" fill="#aab2bd"/></g><g><path d="m52 36v5c0 1.66-1.34 3-3 3h-11-12-11c-1.66 0-3-1.34-3-3v-5h18z" fill="#ccd1d9"/></g><g><path d="m52 36h-40v-21c0-1.657 1.343-3 3-3h34c1.657 0 3 1.343 3 3z" fill="#69d6f4"/></g><g><path d="m36 30c0 1.1-.9 2-2 2h-2-2c-1.1 0-2-.9-2-2v-2h2 4 2z" fill="#ccd1d9"/></g><g><path d="m40.49 12c-1.77-2.54-4.91-4-8.49-4s-6.72 1.46-8.49 4c-.96 1.37-1.51 3.06-1.51 5 0 5 5 7 6 11h2 4 2c1-4 6-6 6-11 0-1.94-.55-3.63-1.51-5z" fill="#ffeaa7"/></g><g><circle cx="28" cy="16" fill="#fcd770" r="2"/></g><g><circle cx="36" cy="16" fill="#fcd770" r="2"/></g><g><path d="m14 54v2c0 1.54-.58 2.94-1.53 4-1.1 1.23-2.7 2-4.47 2-3.31 0-6-2.69-6-6v-4h6 6z" fill="#aab2bd"/></g><g><path d="m13.66 48c.22.63.34 1.3.34 2v2h-6v-4c.55 0 1.05-.22 1.41-.59.37-.36.59-.86.59-1.41v-1.65l2.24 1.41c.63.63 1.12 1.39 1.42 2.24z" fill="#ccd1d9"/></g><g><path d="m8 48v4h-6v-2c0-2.61 1.67-4.84 4-5.65v1.65c0 1.1.9 2 2 2z" fill="#ccd1d9"/></g><g><path d="m10 44.35v1.65c0 .55-.22 1.05-.59 1.41-.36.37-.86.59-1.41.59-1.1 0-2-.9-2-2v-1.65-.01c.63-.22 1.3-.34 2-.34s1.37.12 2 .34z" fill="#fcd770"/></g><g><path d="m50 54v6h-37.53c.95-1.06 1.53-2.46 1.53-4v-2z" fill="#ff826e"/></g><g><path d="m13.66 48h12.34 12 12v6h-36v-2-2c0-.7-.12-1.37-.34-2z" fill="#fcd770"/></g><g><path d="m50 48 10.09 4.59c.55.25.91.8.91 1.41s-.36 1.16-.91 1.41l-10.09 4.59v-6z" fill="#aab2bd"/></g></g><g><path d="m31 1h2v4h-2z"/><path d="m24 2.697h2v3.606h-2z" transform="matrix(.832 -.555 .555 .832 1.703 14.623)"/><path d="m37.197 3.5h3.606v2h-3.606z" transform="matrix(.555 -.832 .832 .555 13.623 34.454)"/><path d="m60.504 51.676-10.287-4.676h-11.217v-2h10c2.206 0 4-1.794 4-4v-26c0-2.206-1.794-4-4-4h-8.033c-1.943-2.472-5.134-4-8.967-4s-7.024 1.528-8.967 4h-8.033c-2.206 0-4 1.794-4 4v20h-7c-1.654 0-3 1.346-3 3s1.346 3 3 3h2c.552 0 1 .449 1 1v1.08c-3.386.488-6 3.401-6 6.92v6c0 3.86 3.141 7 7 7 1.902 0 3.627-.765 4.889-2h37.327l10.286-4.676c.91-.413 1.498-1.325 1.498-2.324s-.588-1.911-1.496-2.324zm-51.504-6.575v.899c0 .551-.448 1-1 1s-1-.449-1-1v-.899c.323-.066.658-.101 1-.101s.677.035 1 .101zm0 3.715c1.154-.412 1.987-1.501 1.998-2.792 1.208.913 2.002 2.348 2.002 3.976v1h-4zm40 .184v4h-34v-3c0-.34-.033-.672-.08-1zm-34 7v-1h34v4h-34.685c.434-.911.685-1.925.685-3zm36-6.447 4 1.818v5.257l-4 1.818zm-14-2.553h-10v-2h10zm12-4h-34c-1.103 0-2-.897-2-2v-4h38v4c0 1.103-.897 2-2 2zm0-30c1.103 0 2 .897 2 2v20h-18.184c.112-.314.184-.648.184-1v-1h1c1.654 0 3-1.346 3-3v-1.871c.397-1.438 1.443-2.646 2.549-3.922 1.618-1.868 3.451-3.984 3.451-7.207 0-1.446-.288-2.793-.82-4zm-18 4h2v10h-2zm-2 12h6.013l-.013 1c0 .551-.448 1-1 1h-4c-.552 0-1-.449-1-1zm3-20c5.299 0 9 3.29 9 8 0 2.477-1.439 4.138-2.963 5.897-1.073 1.239-2.176 2.515-2.769 4.103h-.268v-8.184c.314.112.648.184 1 .184 1.654 0 3-1.346 3-3s-1.346-3-3-3c-1.302 0-2.402.839-2.816 2h-2.369c-.414-1.161-1.514-2-2.816-2-1.654 0-3 1.346-3 3s1.346 3 3 3c.352 0 .686-.072 1-.184v8.184h-.268c-.593-1.588-1.696-2.864-2.769-4.103-1.523-1.759-2.962-3.42-2.962-5.897 0-4.71 3.701-8 9-8zm3 7c0-.551.448-1 1-1s1 .449 1 1-.448 1-1 1-1-.449-1-1zm-6 0c0 .551-.448 1-1 1s-1-.449-1-1 .448-1 1-1 1 .449 1 1zm-16-1c0-1.103.897-2 2-2h6.82c-.532 1.207-.82 2.554-.82 4 0 3.223 1.833 5.339 3.451 7.207 1.105 1.277 2.151 2.484 2.549 3.922v1.871c0 1.654 1.346 3 3 3h1v1c0 .551-.448 1-1 1h-17zm-7 24h-2c-.552 0-1-.449-1-1s.448-1 1-1h7v4c0 2.206 1.794 4 4 4h10v2h-10.685c-.989-2.072-2.963-3.581-5.315-3.92v-1.08c0-1.654-1.346-3-3-3zm-.998 7.024c.01 1.292.843 2.381 1.998 2.792v2.184h-4v-1c0-1.628.794-3.063 2.002-3.976zm2.998 14.976c-2.757 0-5-2.243-5-5v-3h10v3c0 2.757-2.243 5-5 5zm51.676-6.497-2.676 1.217v-3.44l2.677 1.217c.196.089.323.287.323.503s-.127.414-.324.503z"/><path d="m47 39h2v2h-2z"/><path d="m43 39h2v2h-2z"/><path d="m39 39h2v2h-2z"/><path d="m39 31h10v2h-10z"/><path d="m41 27h8v2h-8z"/><path d="m43 23h6v2h-6z"/><path d="m45 19h4v2h-4z"/><path d="m47 15h2v2h-2z"/></g></g></svg>